<?xml version="1.0" encoding="UTF-8"?>
<svg width="150px" height="117px" viewBox="0 0 150 117" version="1.1" xmlns="http://www.w3.org/2000/svg" xmlns:xlink="http://www.w3.org/1999/xlink">
    <!-- Generator: sketchtool 55.2 (78181) - https://sketchapp.com -->
    <title>6A345A9E-0966-4ED9-B7B0-6EAD5A3A7326</title>
    <desc>Created with sketchtool.</desc>
    <g id="Фтизис" stroke="none" stroke-width="1" fill="none" fill-rule="evenodd">
        <g id="2_1280x800_неавторизованный" transform="translate(-1077.000000, -121.000000)" fill="#51ACDD" fill-rule="nonzero">
            <g id="developer" transform="translate(1040.000000, 56.000000)">
                <g id="logo-ftizis" transform="translate(37.000000, 65.000000)">
                    <path d="M0,110.85772 L0,104.936916 L75,104.936916 L150,104.936916 L150,110.85772 L150,116.778523 L75,116.778523 L0,116.778523 L0,110.85772 Z M7.3451969,113.874794 C8.44370282,113.309499 8.66980935,111.591599 7.75393696,110.769318 L7.28393689,110.347354 L7.67795579,109.768619 C8.18755854,109.020128 8.08143828,108.232289 7.37646985,107.530325 L6.86566356,107.021705 L4.5641214,107.021705 L2.26257291,107.021705 L2.21709189,110.43626 C2.192071,112.314265 2.21329125,113.958134 2.26358641,114.089306 C2.39166805,114.421463 6.63064452,114.242522 7.34521591,113.874794 L7.3451969,113.874794 Z M3.85475056,112.0252 L3.85475056,111.107898 L4.95515046,111.107898 C6.36646822,111.107898 6.70390823,111.284897 6.70390823,112.0252 C6.70390823,112.765503 6.36646822,112.942508 4.95515046,112.942508 L3.85475056,112.942508 L3.85475056,112.0252 Z M3.85475056,109.023103 L3.85475056,108.272582 L4.99441109,108.272582 C6.1650722,108.272582 6.53631258,108.438367 6.53631258,108.961157 C6.53631258,109.533885 6.06296161,109.77363 4.93216291,109.77363 L3.85475056,109.77363 L3.85475056,109.023103 Z M10.9776542,110.607548 L10.9776542,107.021705 L10.2653632,106.970393 L9.55307224,106.919082 L9.55307224,110.607498 L9.55307224,114.295907 L10.2653632,114.244596 L10.9776542,114.193285 L10.9776542,110.607548 Z M17.0523218,114.020238 C17.8550998,113.686449 18.2293047,113.337978 18.6355046,112.545967 C19.4343996,110.988249 19.1216194,108.777344 17.9538215,107.727439 C16.409817,106.339301 13.7272541,106.628195 12.6138243,108.302524 C12.2433377,108.85965 12.1427854,109.226792 12.0932314,110.203323 C12.0588989,110.879726 12.1213561,111.683588 12.2347673,112.025591 C12.4892139,112.792823 13.32787,113.756683 13.9912974,114.044349 C14.6831663,114.344357 16.3035193,114.331592 17.0523218,114.020206 L17.0523218,114.020238 Z M14.2383201,112.434179 C13.3960978,111.53696 13.3668519,109.743745 14.1787767,108.783509 C14.7064642,108.159444 15.490638,107.991743 16.3025502,108.329333 C17.1774706,108.693115 17.4807682,109.381766 17.3991494,110.819211 C17.3389726,111.879303 17.285903,112.022931 16.7924403,112.4617 C16.3631831,112.843371 16.0933185,112.942508 15.4835878,112.942508 C14.843566,112.942508 14.6359179,112.857744 14.2383138,112.434179 L14.2383201,112.434179 Z M21.5964645,111.775028 L21.6566414,109.356671 L22.2762917,111.775028 L22.8959421,114.193385 L23.631303,114.193385 L24.3666639,114.193385 L24.9863142,111.775028 L25.6059646,109.356671 L25.6661414,111.775028 L25.7263182,114.193385 L26.3967071,114.193385 L27.0671024,114.193385 L27.1122667,110.558153 L27.157431,106.922927 L26.022857,106.972347 L24.888283,107.021768 L24.3016855,109.231072 C23.9790617,110.446188 23.6764926,111.440634 23.6293076,111.440949 C23.5821163,111.441283 23.280453,110.447077 22.9589187,109.231645 L22.3743166,107.021768 L21.2430301,106.972474 L20.1117437,106.923179 L20.1117437,110.609622 L20.1117437,114.296065 L20.8240347,114.244754 L21.5363257,114.193442 L21.5964645,111.775028 Z M34.0223471,113.609645 L34.0223471,112.942508 L32.011174,112.942508 L30.0000009,112.942508 L30.0000009,112.030842 L30.0000009,111.119181 L31.8016763,111.071841 L33.6033516,111.024501 L33.6553571,110.399069 L33.7073625,109.77363 L31.853669,109.77363 L29.9999755,109.77363 L29.9999755,109.023103 L29.9999755,108.272582 L31.9273508,108.272582 L33.8547261,108.272582 L33.8547261,107.605451 L33.8547261,106.938314 L31.1731641,106.938314 L28.4915957,106.938314 L28.4915957,110.496359 C28.4915957,112.453278 28.5418909,114.104435 28.6033283,114.165586 C28.664772,114.226732 29.9091972,114.276776 31.3686944,114.276776 L34.0223471,114.276776 L34.0223471,113.609645 Z M38.8589112,114.12182 C40.4174405,113.822197 41.2803509,112.609217 41.2888517,110.706105 C41.2953761,109.241195 41.047796,108.486501 40.3351376,107.799117 C39.6067192,107.096541 38.9779726,106.938314 36.9145154,106.938314 L35.1955293,106.938314 L35.1955293,110.496359 C35.1955293,112.453278 35.2458245,114.104435 35.3072618,114.165586 C35.4642093,114.321771 37.9801331,114.29077 38.8589112,114.121839 L38.8589112,114.12182 Z M36.7039091,110.626976 L36.7039091,108.272582 L37.7001524,108.272582 C38.5116465,108.272582 38.7835888,108.347223 39.1666302,108.675099 C39.617513,109.061044 39.6368709,109.139814 39.6368709,110.588473 C39.6368709,112.533839 39.4187014,112.809345 37.7968091,112.912119 L36.7039091,112.98137 L36.7039091,110.626976 Z M43.9106106,110.607561 L43.9106106,106.938327 L43.1564239,106.938327 L42.4022308,106.938327 L42.4022308,110.496371 C42.4022308,112.453291 42.452526,114.104448 42.5139633,114.165599 C42.5754071,114.226744 42.9148044,114.276789 43.2681564,114.276789 L43.9106106,114.276789 L43.9106106,110.607561 Z M49.9572611,113.897557 C50.6069809,113.461838 51.3190521,112.489348 51.2488606,112.133603 C51.2225728,112.000509 50.9177423,111.794072 50.5713879,111.674851 L49.9416595,111.458083 L49.705684,112.020094 C49.4248165,112.689046 49.0075947,112.942521 48.1873718,112.942521 C47.1485803,112.942521 46.592179,112.060765 46.592179,110.414569 C46.592179,108.97725 47.5911017,107.900542 48.6737273,108.170949 C49.1295763,108.284798 49.682405,108.7421 49.8043676,109.10621 C49.8941008,109.374107 51.2852011,109.164644 51.2842894,108.883371 C51.2839532,108.77677 51.1337961,108.444948 50.9506242,108.14598 C49.733625,106.159641 46.3687582,106.514043 45.3826753,108.732418 C44.8821181,109.858502 44.9997226,111.96449 45.6147932,112.889073 C46.4986578,114.217717 48.7130196,114.731973 49.9572611,113.897557 Z M53.6814996,113.436895 L54.0380758,112.597007 L55.4644378,112.644663 L56.8907934,112.692318 L57.1680376,113.442839 C57.4367746,114.170333 57.4690548,114.194923 58.2198463,114.244199 C58.8776551,114.287379 58.9923014,114.249872 58.9803928,113.994021 C58.9726648,113.828469 58.3504743,112.191968 57.5977128,110.357351 L56.2290509,107.021686 L55.4118495,107.021686 L54.5946545,107.021686 L53.2119682,110.55872 C52.4514914,112.504086 51.8702086,114.136476 51.9202313,114.186256 C51.9702731,114.236055 52.3067693,114.276757 52.668052,114.276757 C53.2979894,114.276757 53.3395495,114.242339 53.6814996,113.436863 L53.6814996,113.436895 Z M54.8945252,110.158012 C55.1268267,109.543838 55.3450723,109.013288 55.3795061,108.979022 C55.4139652,108.94473 55.5938306,109.315912 55.7792513,109.803831 C55.9646719,110.291743 56.1686524,110.822294 56.2325475,110.982821 C56.3348228,111.239801 56.2363482,111.274691 55.4104306,111.274691 L54.4721535,111.274691 L54.8945252,110.158012 Z M64.9961504,113.56796 L65.0481558,112.942521 L63.1944623,112.942521 L61.3407689,112.942521 L61.3407689,109.930836 L61.3407689,106.919145 L60.6284778,106.970456 L59.9161932,107.021768 L59.8707122,110.436323 C59.8456913,112.314328 59.8629842,113.948729 59.9090986,114.068334 C59.9739313,114.236471 60.5544477,114.27532 62.4685524,114.239622 L64.9441513,114.193417 L64.9961504,113.56796 Z M71.6937749,111.240854 L71.7395093,108.288316 L72.7831593,108.238769 L73.8268156,108.189223 L73.8268156,107.605483 L73.8268156,107.021736 L70.9357495,106.976098 L68.0446897,106.93046 L68.0446897,107.60153 L68.0446897,108.272601 L69.1340741,108.272601 L70.2234585,108.272601 L70.2234585,111.284286 L70.2234585,114.295977 L70.9357495,114.244665 L71.6480405,114.193354 L71.6937749,111.240854 Z M80.2475506,113.56796 L80.2995561,112.942521 L78.2782669,112.942521 L76.2569778,112.942521 L76.2569778,112.025213 L76.2569778,111.10791 L78.0167511,111.10791 L79.7765307,111.10791 L79.7765307,110.440773 L79.7765307,109.773643 L78.0167511,109.773643 L76.2569778,109.773643 L76.2569778,109.023115 L76.2569778,108.272594 L78.1843467,108.272594 L80.1117284,108.272594 L80.1117284,107.605464 L80.1117284,106.938327 L77.43016,106.938327 L74.748598,106.938327 L74.748598,110.61169 L74.748598,114.285053 L77.4720621,114.239225 L80.1955262,114.193398 L80.2475506,113.56796 Z M86.265595,113.838996 C86.6820694,113.531638 87.4761312,112.380402 87.4832802,112.073605 C87.4845433,112.008489 87.1708319,111.861237 86.7855862,111.746372 C86.2257136,111.579446 86.0711415,111.579339 86.0153671,111.745874 C85.9769806,111.860442 85.7575568,112.176569 85.527732,112.448368 C84.9808893,113.095094 84.0418963,113.134573 83.3473417,112.540041 C82.9123772,112.167718 82.8727365,112.031661 82.8188624,110.726252 C82.7623595,109.357819 82.7758518,109.29801 83.2626,108.755899 C83.6823049,108.288454 83.8808061,108.196819 84.4736746,108.196819 C85.0728015,108.196819 85.2553463,108.283336 85.6508158,108.754745 C86.091703,109.280284 86.1561238,109.303696 86.7605526,109.158025 C87.2636119,109.036788 87.3896666,108.934108 87.3440589,108.682701 C87.2508735,108.16902 86.6650298,107.456263 86.0901384,107.157138 C85.4467087,106.822353 83.7256259,106.786378 83.1284943,107.095236 C81.4489589,107.963944 80.7405193,109.951512 81.3647747,112.043411 C81.6213814,112.9033 82.1797717,113.561713 83.0446965,114.024266 C83.7665588,114.410312 85.6372919,114.302722 86.265595,113.839034 L86.265595,113.838996 Z M90.1676002,112.692349 L90.1676002,111.10791 L91.5921822,111.10791 L93.0167579,111.10791 L93.0167579,112.701937 L93.0167579,114.29597 L93.7290489,114.244659 L94.4413399,114.193348 L94.4865042,110.565812 L94.5316685,106.938276 L93.7742132,106.938276 L93.0167515,106.938276 L93.0167515,108.355934 L93.0167515,109.773592 L91.5921759,109.773592 L90.1675939,109.773592 L90.1675939,108.355934 L90.1675939,106.938276 L89.4134008,106.938276 L88.659214,106.938276 L88.659214,110.496321 C88.659214,112.453241 88.7095092,114.104397 88.7709466,114.165549 C88.8323903,114.226694 89.1717813,114.276738 89.5251333,114.276738 L90.1675939,114.276738 L90.1676002,112.692349 Z M97.3743017,111.989849 L97.4580995,109.786307 L98.8619174,112.040108 L100.265742,114.293909 L100.956895,114.243669 L101.648048,114.19343 L101.693212,110.556142 L101.738376,106.918861 L101.022791,106.970299 L100.307207,107.021736 L100.260269,109.257093 L100.213331,111.492444 L98.8318733,109.257093 L97.4504159,107.021736 L96.7000488,107.021736 L95.9496754,107.021736 L95.9041944,110.436292 C95.8791735,112.314296 95.8974165,113.951251 95.9447345,114.07397 C96.0008573,114.219539 96.2497234,114.279077 96.6606108,114.245258 L97.2904532,114.193442 L97.3743017,111.989849 Z M108.023694,113.963291 C109.27605,113.397188 109.942265,112.231927 109.942265,110.607561 C109.942265,108.77793 109.041152,107.456352 107.487076,107.006765 C105.028047,106.295383 102.903235,107.904999 102.905963,110.477114 C102.908499,112.878079 104.199463,114.269464 106.424581,114.269464 C106.961168,114.269464 107.62941,114.141519 108.023694,113.963291 L108.023694,113.963291 Z M105.203548,112.544114 C104.361789,111.767785 104.221589,109.772975 104.944516,108.858396 C105.432531,108.241001 106.375711,108.011328 107.131893,108.325746 C107.979309,108.6781 108.31922,109.267721 108.3337,110.410459 C108.355554,112.137543 107.731666,112.942521 106.37115,112.942521 C105.827924,112.942521 105.522562,112.838329 105.203548,112.544114 L105.203548,112.544114 Z M116.145249,113.609658 L116.145249,112.942521 L114.389339,112.942521 L112.63343,112.942521 L112.587632,109.982122 L112.541898,107.021717 L111.829607,106.970406 L111.117316,106.919095 L111.117316,110.597916 L111.117316,114.276738 L113.631282,114.276738 L116.145249,114.276738 L116.145249,113.609658 Z M121.893473,114.051459 C122.584138,113.764279 123.425619,112.813814 123.687021,112.025603 C123.800445,111.683601 123.862877,110.879738 123.828557,110.203335 C123.75535,108.760715 123.22333,107.799413 122.22048,107.29774 C119.948982,106.161412 117.463546,107.221082 116.981599,109.531344 C116.668451,111.032431 117.071123,112.700595 117.934078,113.477175 C118.776693,114.235449 120.759348,114.52302 121.893473,114.051459 L121.893473,114.051459 Z M119.129342,112.461713 C118.635879,112.022943 118.582828,111.879315 118.522633,110.819224 C118.441014,109.381779 118.744311,108.693127 119.619232,108.329346 C121.475199,107.557638 123.006054,109.714231 122.112675,111.841992 C121.611509,113.035613 120.122627,113.344893 119.129342,112.461713 L119.129342,112.461713 Z M130.649873,113.765496 L131.480447,113.340607 L131.528651,111.807297 L131.576856,110.273992 L129.978389,110.273992 L128.379921,110.273992 L128.379921,110.941123 L128.379921,111.60826 L129.217905,111.60826 C129.997708,111.60826 130.055896,111.636878 130.055896,112.020932 C130.055896,112.557578 129.325426,112.942521 128.307088,112.942521 C127.706434,112.942521 127.433916,112.841777 127.00647,112.461713 C126.513007,112.022943 126.45995,111.879315 126.399761,110.819224 C126.318142,109.381779 126.621433,108.693127 127.496354,108.329346 C128.307417,107.992109 129.092484,108.159495 129.618734,108.78187 C129.999951,109.232723 130.10507,109.26941 130.730517,109.169883 C131.373908,109.067499 131.413834,109.030106 131.312756,108.624582 C130.873256,106.86136 127.808634,106.227021 126.077555,107.540965 C123.944457,109.160049 124.484934,113.189465 126.955339,114.085089 C127.84047,114.405987 129.71482,114.243846 130.649905,113.765496 L130.649873,113.765496 Z M134.245806,110.607561 L134.245806,106.938327 L133.49162,106.938327 L132.737427,106.938327 L132.737427,110.496371 C132.737427,112.453291 132.787722,114.104448 132.849159,114.165599 C132.910603,114.226744 133.25,114.276789 133.603352,114.276789 L134.245806,114.276789 L134.245806,110.607561 Z M141.117317,113.609658 L141.117317,112.942521 L139.106144,112.942521 L137.09497,112.942521 L137.09497,112.030854 L137.09497,111.119194 L138.896646,111.071854 L140.698321,111.024514 L140.750327,110.399081 L140.802332,109.773643 L138.948639,109.773643 L137.094945,109.773643 L137.094945,109.023115 L137.094945,108.272594 L139.02232,108.272594 L140.949696,108.272594 L140.949696,107.605464 L140.949696,106.938327 L138.268127,106.938327 L135.586565,106.938327 L135.586565,110.607561 L135.586565,114.276789 L138.351925,114.276789 L141.117317,114.276789 L141.117317,113.609658 Z M146.565955,114.036652 C148.01018,113.436145 148.253187,111.311404 146.99093,110.320847 C146.716093,110.105169 146.302571,109.958433 144.78073,109.536583 C143.68759,109.233562 143.415622,108.849728 143.974791,108.399139 C144.343701,108.101867 145.238106,108.009286 145.57547,108.233449 C145.67689,108.300847 145.849236,108.524852 145.958461,108.731245 C146.119133,109.034865 146.299898,109.106512 146.905334,109.106512 C147.773381,109.106512 147.863336,108.867069 147.325216,107.988818 C146.86193,107.232693 146.087638,106.880573 144.888263,106.880573 C143.186785,106.880573 142.196522,107.670876 142.231564,109.000826 C142.255381,109.905533 143.069599,110.65845 144.416287,111.021122 C146.213243,111.505051 146.663929,111.946455 146.050164,112.621364 C145.839583,112.852921 145.534955,112.942521 144.958252,112.942521 C144.151281,112.942521 144.030889,112.862679 143.379883,111.895831 C143.260752,111.718888 143.025676,111.671283 142.566907,111.731187 C141.953566,111.811274 141.926461,111.839987 142.02085,112.309638 C142.16186,113.011275 142.754621,113.775065 143.362502,114.038392 C144.053192,114.337593 145.844517,114.336622 146.565955,114.036501 L146.565955,114.036652 Z M135.586591,100.100208 L135.586591,97.7652419 L136.154983,97.7652419 C136.657542,97.7652419 136.753153,97.6911933 136.980406,97.1259922 C137.494861,95.8464905 137.782469,93.8357442 137.883521,90.8119816 L137.985581,87.7582516 L142.149216,87.7582516 L146.312845,87.7582516 L146.312845,92.7617467 L146.312845,97.7652419 L146.899436,97.7652419 L147.486034,97.7652419 L147.486034,100.100208 L147.486034,102.435169 L146.396643,102.435169 L145.307259,102.435169 L145.307259,101.184298 L145.307259,99.933421 L141.536312,99.933421 L137.765359,99.933421 L137.765359,101.184298 L137.765359,102.435169 L136.675975,102.435169 L135.586591,102.435169 L135.586591,100.100208 Z M143.798879,93.7566086 L143.798879,89.7479816 L142.081001,89.7955109 L140.363124,89.8430402 L140.250162,92.1780067 C140.151288,94.2217398 139.949702,95.6429783 139.522719,97.3065845 L139.405001,97.7652419 L141.601943,97.7652419 L143.798879,97.7652419 L143.798879,93.7566086 Z M41.2837525,99.9365917 C40.3759375,99.7442432 39.7449929,99.4093447 39.1848669,98.8225285 C38.7779005,98.3961645 38.1154929,97.12603 38.2443727,97.0191774 C38.2728142,96.9956019 38.7108952,96.8426699 39.2178755,96.6793432 C39.7248621,96.5160165 40.223158,96.3518829 40.3252052,96.3145971 C40.4272588,96.2772797 40.6071622,96.4784154 40.7249884,96.7614982 C41.0850043,97.62643 41.6348241,97.932023 42.8309686,97.932023 C43.7202871,97.932023 43.9654285,97.8645869 44.4005451,97.5002442 C44.8164493,97.151982 44.9161972,96.9407289 44.9161972,96.4081868 C44.9161972,95.3580801 44.0600519,94.7631448 42.5488786,94.7631448 C42.077789,94.7631448 42.0670395,94.7430993 42.0670395,93.8647724 L42.0670395,92.9664062 L42.8484769,92.8497893 C43.9201059,92.6898666 44.5810059,92.0306155 44.5810059,91.1215711 C44.5810059,90.583589 44.4824236,90.3738866 44.0653538,90.0246474 C43.131764,89.2429044 41.4954039,89.5510063 41.0629542,90.5899556 C40.9196953,90.9341268 40.7605815,91.0775403 40.5784547,91.0266512 C40.4292985,90.9849843 39.8724157,90.858269 39.340934,90.7450939 C38.4809753,90.5619613 38.3855729,90.5009864 38.4742292,90.1911763 C38.7057263,89.3821891 39.492985,88.4978548 40.3802512,88.0501216 C41.1646657,87.654286 41.4887465,87.5914705 42.7464106,87.5914705 C44.4096856,87.5914705 45.4291572,87.8811784 46.1438679,88.5569512 C46.8277111,89.203532 47.0949723,89.7992553 47.0949723,90.6769581 C47.0949723,91.6191281 46.80117,92.2110187 45.9753284,92.9325936 C45.6221221,93.2412061 45.4292142,93.5156592 45.5397432,93.552321 C46.6188025,93.9102593 47.600559,95.3227672 47.5941171,96.5080109 C47.586484,97.8959159 46.4668908,99.3765281 45.1302747,99.7662428 C44.256127,100.021117 42.1275901,100.115381 41.2837525,99.9365917 L41.2837525,99.9365917 Z M65.6538198,99.9187525 C63.395529,99.3892866 61.8747527,97.6078217 61.4913946,95.0427984 C61.1605994,92.8295358 61.7193318,90.6180887 62.9524945,89.259754 C63.9360373,88.176383 65.0065832,87.7129916 66.7273049,87.6258063 C68.5397867,87.5339689 69.6458813,87.8626205 70.662344,88.7950136 C71.3988451,89.470591 72.0757648,90.8302116 71.7994834,91.0789965 C71.6195484,91.2410183 70.2134185,91.5942792 69.7484226,91.5942792 C69.5438784,91.5942792 69.3842641,91.4453941 69.3213381,91.1959033 C69.2661021,90.9767959 68.9536006,90.5640099 68.6269481,90.2785948 C68.1145202,89.8308679 67.9050732,89.7596623 67.1005026,89.7596623 C65.8372642,89.7596623 65.1177013,90.1321051 64.5613253,91.0739347 C64.1374207,91.7915005 64.1061477,91.9762532 64.1061477,93.7624584 C64.1061477,95.4970055 64.1462445,95.7522515 64.5251368,96.430987 C65.6659312,98.4744365 68.4863117,98.3286528 69.3094801,96.1836836 C69.468499,95.7693154 69.6868458,95.430288 69.7946954,95.430288 C69.9025386,95.430288 70.4527639,95.5855461 71.0174126,95.7753038 L72.0440484,96.1203196 L71.797279,96.8177013 C70.9238725,99.2859136 68.3963505,100.56174 65.6538198,99.9187525 L65.6538198,99.9187525 Z M102.150841,99.8763922 C99.6062288,99.2182758 98.1439444,97.352002 97.9225697,94.4799864 C97.7403986,92.1165779 98.417673,90.1897769 99.8952803,88.8677321 C100.956926,87.9178654 101.968581,87.5914642 103.850951,87.5914642 C106.954466,87.5914642 108.914673,89.1498757 109.544642,92.1180908 C109.856573,93.5878167 109.745778,95.2119244 109.239957,96.584209 C108.789169,97.8071925 107.34127,99.2587576 106.165713,99.6662486 C105.062405,100.048695 103.19496,100.146439 102.150841,99.8763922 Z M105.515828,97.4236489 C105.832916,97.228634 106.299083,96.7191064 106.551763,96.2913682 C106.973792,95.5769416 107.011172,95.3711601 107.011172,93.7624395 C107.011172,92.2707707 106.955872,91.9082371 106.637873,91.3164348 C106.018799,90.1642157 105.403177,89.8430339 103.813768,89.8430339 C102.601965,89.8430339 102.397851,89.8901849 101.86808,90.2922737 C101.542561,90.5393565 101.135918,91.0271996 100.964433,91.3763632 C100.564364,92.1909669 100.439944,94.4960291 100.738725,95.557974 C100.992735,96.4608094 101.961905,97.5066487 102.77286,97.7530255 C103.558783,97.9918002 104.842741,97.83762 105.515828,97.4236489 L105.515828,97.4236489 Z M7.54189913,99.2117389 L7.54189913,98.4754514 L6.57821466,98.3669346 C5.42307284,98.2368532 4.10661277,97.6522748 3.48663937,96.9941079 C1.96055488,95.3740093 1.8726777,92.2611388 3.30598218,90.5947905 C4.05177584,89.7277281 4.87795308,89.312427 6.36023517,89.0594818 L7.54189913,88.8578291 L7.54189913,88.3080404 L7.54189913,87.7582453 L8.79888549,87.7582453 L10.0558655,87.7582453 L10.0558655,88.3080404 L10.0558655,88.8578291 L11.2375358,89.0594818 C13.099198,89.3771651 14.1129686,90.0407531 14.8551706,91.427473 C15.3325693,92.3194409 15.3026899,95.0977344 14.8058256,96.0140091 C14.079808,97.352935 12.77945,98.1597411 11.0148372,98.3661278 L10.0729557,98.4762898 L10.0225339,99.163157 L9.97204868,99.8500242 L8.75696441,99.8990033 L7.54188013,99.9479824 L7.54189913,99.2117389 Z M7.54189913,93.6790489 L7.54189913,91.0939108 L7.02253506,91.0939108 C5.54005661,91.0939108 4.56792838,92.3440818 4.74239052,94.0262143 C4.79224227,94.5069028 4.9559676,95.0869048 5.10622598,95.3151083 C5.44955699,95.836556 6.28751622,96.2554376 6.99721011,96.260386 L7.54189913,96.2641681 L7.54189913,93.6790489 Z M11.7145291,95.9394121 C12.1165863,95.7352948 12.4409965,95.4099903 12.5877392,95.0638021 C12.9190919,94.2820907 12.8794259,92.7520644 12.5133987,92.1961485 C12.1107333,91.5845906 11.2611125,91.095285 10.6005609,91.0945349 L10.0558655,91.0939108 L10.0558655,93.6790489 L10.0558655,96.264187 L10.5653352,96.264187 C10.8455439,96.264187 11.3626846,96.1180377 11.7145291,95.9394121 L11.7145291,95.9394121 Z M19.3854727,99.8222252 C19.3240289,99.7610802 19.2737401,97.4719725 19.2737401,94.7353395 L19.2737401,89.7596433 L17.5139668,89.7596433 L15.7541872,89.7596433 L15.7541872,88.7589443 L15.7541872,87.7582453 L20.6145243,87.7582453 L25.4748614,87.7582453 L25.4748614,88.7589443 L25.4748614,89.7596433 L23.631284,89.7596433 L21.7877065,89.7596433 L21.7877065,94.846529 L21.7877065,99.9334147 L20.642459,99.9334147 C20.0125723,99.9334147 19.446929,99.883364 19.3854727,99.8222252 L19.3854727,99.8222252 Z M26.9832159,93.84583 L26.9832159,87.7582075 L28.1533322,87.7582075 L29.3234296,87.7582075 L29.3684039,91.606628 L29.4133781,95.4550108 L31.7597488,91.6078698 L34.1061196,87.7607289 L35.407092,87.7594682 L36.7080645,87.7582075 L36.6640404,93.8041001 L36.6200796,99.8499864 L35.4469038,99.8499864 L34.2737152,99.8499864 L34.1899174,96.1047749 L34.1061196,92.3595697 L31.9409128,95.8546033 C30.7500513,97.7767271 29.6636441,99.480834 29.5266689,99.6413619 C29.3343438,99.8667729 29.0164011,99.9332319 28.1304207,99.9332319 L26.9832159,99.9332319 L26.9832159,93.84583 Z M49.7765343,93.84583 L49.7765343,87.7582453 L50.9466335,87.7582453 L52.1167245,87.7582453 L52.1616988,91.5887384 L52.2066731,95.4192315 L54.5456896,91.5887384 L56.8846997,87.7582453 L58.1930327,87.7582453 L59.5013594,87.7582453 L59.4573353,93.8041316 L59.4133746,99.8500242 L58.2401987,99.8500242 L57.0670165,99.8500242 L57.0219156,96.0249144 L56.9768146,92.1997983 L55.1230894,95.1909964 C54.1035482,96.8361519 53.0106482,98.576221 52.6944348,99.0578046 L52.1195053,99.9334147 L50.9480334,99.9334147 L49.7765343,99.9334147 L49.7765343,93.84583 Z M74.203909,99.840802 C74.1347753,99.7694325 74.0782091,97.0216611 74.0782091,93.7346405 L74.0782091,87.7582453 L78.6871464,87.7582453 L83.29609,87.7582453 L83.29609,88.7589443 L83.29609,89.7596433 L79.9441327,89.7596433 L76.5921754,89.7596433 L76.5921754,91.1773014 L76.5921754,92.5949594 L78.8966441,92.5962201 C81.5494859,92.5974808 82.2318595,92.7413671 83.0755831,93.4785687 C84.6882335,94.8876097 84.702752,97.3795741 83.1070651,98.8811269 C82.7962296,99.1736273 82.315651,99.5024743 82.0391163,99.6119051 C81.4624386,99.840096 74.4029739,100.04664 74.2039153,99.8411361 L74.203909,99.840802 Z M81.1954181,97.2703135 C81.5632569,96.9263441 81.6273611,96.7374436 81.5859087,96.1196136 C81.5063613,94.9340421 81.066798,94.7140018 78.6033105,94.6265959 L76.5921754,94.5552389 L76.5921754,96.1773863 L76.5921754,97.7995336 L78.6737554,97.7407208 C80.614946,97.6858163 80.7850121,97.6541218 81.1954181,97.270345 L81.1954181,97.2703135 Z M86.3127546,93.84583 L86.3127546,87.7582075 L87.482947,87.7582075 L88.653038,87.7582075 L88.6980123,91.606628 L88.7429865,95.4550108 L91.0893573,91.6078698 L93.4357217,87.7607289 L94.7366941,87.7594682 L96.0376729,87.7582075 L95.9936488,93.8041001 L95.9496247,99.8499864 L94.7764425,99.8499864 L93.6032603,99.8499864 L93.5194561,96.1047749 L93.4356583,92.3595697 L91.2704579,95.8546033 C90.0795963,97.7767271 88.9931828,99.480834 88.856214,99.6413619 C88.6638825,99.8667729 88.3459398,99.9332319 87.4599658,99.9332319 L86.3127546,99.9332319 L86.3127546,93.84583 Z M111.564246,99.8222252 C111.502802,99.7610802 111.452513,97.0216611 111.452513,93.7346405 L111.452513,87.7582453 L113.35642,87.7582453 L115.26032,87.7582453 L116.053102,90.718644 C116.489131,92.3468679 116.976493,94.1585083 117.136127,94.7445176 L117.426382,95.8099863 L118.488997,91.7841189 L119.551618,87.7582453 L121.453878,87.7582453 L123.356137,87.7582453 L123.312113,93.8041316 L123.268152,99.8500242 L122.139577,99.8992554 L121.011002,99.9484867 L120.966407,95.3960909 L120.921813,90.8436888 L119.850051,95.0966628 C119.260584,97.435796 118.709352,99.484301 118.625092,99.648901 C118.496585,99.8999299 118.291161,99.9402541 117.350483,99.8990726 L116.229078,99.8499675 L115.131966,95.5969997 C114.528557,93.2578602 113.987719,91.2314494 113.930114,91.0938541 C113.872471,90.9562525 113.819414,92.8888528 113.812142,95.3885202 L113.798903,99.933358 L112.737447,99.933358 C112.15365,99.933358 111.625715,99.8833073 111.564265,99.8221685 L111.564246,99.8222252 Z M125.698321,93.84583 L125.698321,87.7582453 L130.22346,87.7582453 L134.7486,87.7582453 L134.7486,88.7589443 L134.7486,89.7596433 L131.480447,89.7596433 L128.212287,89.7596433 L128.212287,91.0939108 L128.212287,92.428172 L131.229047,92.428172 L134.245806,92.428172 L134.245806,93.5122616 L134.245806,94.5963574 L131.229047,94.5963574 L128.212287,94.5963574 L128.212287,96.1807965 L128.212287,97.7652356 L131.564244,97.7652356 L134.916202,97.7652356 L134.916202,98.8493252 L134.916202,99.9334147 L130.307258,99.9334147 L125.698321,99.9334147 L125.698321,93.84583 Z M65.8987776,80.103361 C64.3919433,79.5854433 63.4320532,78.3497518 63.0351901,76.4169938 C62.7073847,74.8205148 62.5191896,70.8364587 62.5112779,65.3259133 C62.5012062,58.3169776 62.2642932,56.5810714 61.1445227,55.3119234 C60.0160424,54.0329034 58.0616382,53.7395696 50.6145252,53.731501 C45.0719285,53.7255126 40.9943716,53.5442786 39.1293079,53.2210695 C36.8994078,52.8346364 36.6845385,52.2409581 36.5806796,46.1793108 L36.5069598,41.8764078 L45.3624179,41.9311547 C55.9058443,41.9963385 55.0566035,41.8418387 57.4724817,44.1342823 C59.3709974,45.9358022 59.926911,46.2988394 61.3378297,46.6585426 C63.5503798,47.2226166 65.4598731,46.5195321 67.6153692,44.3471277 C70.3043805,41.6370292 70.7220077,39.4808648 69.0544127,36.917534 C68.114989,35.4735174 66.6288366,34.1233875 65.2042229,33.4197477 C64.0691548,32.8591192 63.8335276,32.8038938 62.6064587,32.8108789 C60.773409,32.8213177 59.7314503,33.3284354 57.8269106,35.137077 C55.0016906,37.8200498 55.5235378,37.716639 44.7905036,37.7204054 L36.5363135,37.7233051 L36.5363135,33.9853554 C36.5363135,29.9699142 36.7738789,27.9881077 37.3478012,27.2159652 C38.0673261,26.2479158 39.82048,26.062089 49.9441299,25.880819 C54.7888736,25.7940706 58.441031,25.6583903 58.9845608,25.5449611 C60.3110926,25.2681277 61.4407321,24.6424712 61.9192392,23.9195744 C62.8418198,22.5258171 62.9520384,21.3765444 63.3465704,9.03659995 C63.5626242,2.27917346 63.8189142,1.07213917 65.192916,0.341036969 C65.7203057,0.0604125945 66.2060785,0.0303040033 70.2062543,0.0303040033 L74.6356176,0.0303040033 L74.5230045,8.18018566 C74.4607373,12.6842006 74.3302993,16.7691414 74.2313686,17.3115631 C73.9993521,18.5836618 73.476371,19.4603479 72.4214902,20.3455124 C70.2210198,22.1919575 69.3834723,24.9050792 70.2040182,27.5286952 C70.8552709,29.6110014 72.075467,31.0118281 74.048108,31.9418416 C75.1030332,32.4391918 75.2787495,32.4696301 77.0949687,32.4696301 C78.7389618,32.4696301 79.1423366,32.4145365 79.8384559,32.094935 C80.9998877,31.5616926 82.6673308,29.7676942 83.4313168,28.2293881 C83.9993481,27.0856443 84.0502831,26.8654237 84.0502831,25.5532718 C84.0502831,23.5878409 83.4887445,22.4501397 81.5612109,20.5102612 C79.5933018,18.5297457 79.6029237,18.5650655 79.4346883,12.7058245 C79.3596256,10.0914987 79.2927027,6.16319118 79.2859755,3.97625248 L79.2737501,0 L83.3379984,0.0709232437 C88.9432234,0.168738343 89.4458519,0.346968041 89.8358295,2.37503696 C90.1378222,3.94551731 90.4813685,8.60778954 90.6646672,13.6231323 C90.9115062,20.377038 91.2501244,23.1948016 91.9582917,24.3878133 C92.2718447,24.9160336 93.0400178,25.3035074 94.2737506,25.5557586 C94.7346418,25.6499945 98.8072705,25.7945956 103.32403,25.8770948 C113.1237,26.0560885 114.552957,26.2335171 115.937106,27.4428986 C117.124769,28.4805985 117.227779,28.9499229 117.289533,33.605038 L117.344452,37.7425418 L108.658281,37.6893897 C98.3064979,37.6260453 99.1021306,37.7765618 96.452551,35.380338 C95.3620391,34.3941007 94.3966127,33.6841484 93.6888761,33.3479885 C90.7944021,31.9731718 87.6207329,32.920945 85.5775204,35.7703358 C83.9283458,38.0702138 83.513341,39.6349718 84.1241929,41.2500666 C85.3075418,44.3788475 87.9226686,46.6739493 90.5146622,46.8585047 C92.6257162,47.008815 94.1944818,46.3096551 96.4855342,44.1974357 C98.1215396,42.6891317 98.7574504,42.3215433 100.148815,42.0798815 C100.696874,41.98469 104.790849,41.8548172 109.246532,41.7912762 L117.347772,41.6757473 L117.276972,46.0789806 C117.177522,52.2638856 116.974834,52.8312652 114.725481,53.2210695 C112.837518,53.5482461 108.760177,53.7255353 102.988864,53.7313976 C95.2206615,53.7392835 93.5983005,53.9708399 92.4501392,55.2355368 C91.2796174,56.5248671 91.267373,56.6353544 91.2302914,66.2432218 C91.1948821,75.4113212 91.0920494,76.9379687 90.415117,78.3417651 C89.5485706,80.1387936 88.5931272,80.4197899 83.349508,80.4197899 L79.4413774,80.4197899 L79.4426443,71.9555466 C79.4439112,63.4354021 79.531288,61.8635608 80.06035,60.8422074 C80.208442,60.5563245 80.8697854,59.7970521 81.5300013,59.1549368 C83.4633436,57.274616 84.2312,55.1846244 83.8148396,52.9359437 C83.5283029,51.3883959 83.0287592,50.4504872 81.8797554,49.3027525 C79.0209251,46.4470739 74.9132988,46.3772003 72.1399449,49.1370702 C69.9720714,51.2944071 69.5228101,54.2927731 70.9281609,57.2244827 C71.4063197,58.2219726 72.8631374,59.8974491 73.621809,60.3224194 C73.8172506,60.4319006 73.9780241,60.8330161 74.0897313,61.4899014 C74.3102889,62.7868054 74.5659391,70.4623517 74.5744019,76.0417332 L74.5809897,80.4197899 L70.6843434,80.4141167 C67.35163,80.4097041 66.6590453,80.3644442 65.8987649,80.1031341 L65.8987776,80.103361 Z M75.7524869,56.0277532 C74.8908433,55.4441739 74.5341721,54.8478456 74.4511914,53.8520734 C74.3175545,52.2484266 75.2058849,51.3610319 76.944856,51.3610319 C78.4571442,51.3610319 79.5139697,52.3325635 79.4931865,53.7036932 C79.4787441,54.6567023 79.144693,55.3668298 78.4289117,55.9661902 C77.7374989,56.5451515 76.5565191,56.5723169 75.7524869,56.0277513 L75.7524869,56.0277532 Z M61.3480597,42.0675113 C60.2117628,40.8426589 59.9184419,39.8540382 60.4104287,38.9072666 C60.8768118,38.0097647 62.3711356,37.4498372 63.7250256,37.6652809 C64.7990618,37.8361921 65.1955321,38.3348989 65.1955321,39.5149944 C65.1955321,41.3217583 64.3118828,42.3989006 62.6033358,42.6748118 C62.0571075,42.763022 61.9413273,42.7070043 61.3480597,42.0675113 L61.3480597,42.0675113 Z M89.9582608,42.2359521 C88.6191553,41.3908484 88.3477894,40.2852112 89.1589098,38.9791688 C89.5434714,38.3599627 90.6791223,37.7233 91.3990779,37.7233 C92.0017331,37.7233 92.8587589,38.0946857 93.2404637,38.5212521 C93.6916316,39.0254493 93.7823529,40.0583794 93.4387558,40.7789444 C93.0229656,41.6508852 91.7917603,42.7267952 91.2097426,42.7267952 C90.9491896,42.7267952 90.3860231,42.5059158 89.9582608,42.2359521 Z M76.0444396,28.0915715 C75.2373479,27.4821814 74.8226345,26.925644 74.6132318,26.1709404 C73.9917635,23.9311157 76.8470908,22.4617144 78.6907316,24.0725846 C79.1969962,24.5149282 79.2737438,24.6825521 79.2737438,25.3459654 C79.2737438,26.2974704 78.7653129,27.3734604 77.9995405,28.0425458 C77.2810671,28.6703078 76.8260416,28.6817173 76.0444396,28.091569 L76.0444396,28.0915715 Z" id="path32"></path>
                </g>
            </g>
        </g>
    </g>
</svg>